<svg width="174" height="57" viewBox="0 0 174 57" fill="none" xmlns="http://www.w3.org/2000/svg">
<path d="M24.2 25.44V27.6C24.2 32.3733 23.2933 35.84 21.48 38C19.6933 40.16 16.8133 41.24 12.84 41.24C8.86667 41.24 5.98667 40.16 4.2 38C2.44 35.84 1.56 32.3333 1.56 27.48V25.4C1.56 20.9733 2.45333 17.68 4.24 15.52C6.05333 13.36 8.90667 12.28 12.8 12.28C16.72 12.28 19.6 13.3733 21.44 15.56C23.28 17.7467 24.2 21.04 24.2 25.44ZM18.64 27.48V26C18.64 23.44 18.32 21.4 17.68 19.88C16.9333 18.12 15.3333 17.24 12.88 17.24C10.4 17.24 8.78667 18.12 8.04 19.88C7.42667 21.32 7.12 23.36 7.12 26V27.48C7.12 30.92 7.6 33.24 8.56 34.44C8.93333 34.9467 9.48 35.3867 10.2 35.76C10.9467 36.1067 11.8267 36.28 12.84 36.28C13.88 36.28 14.76 36.1067 15.48 35.76C16.2 35.4133 16.76 34.9867 17.16 34.48C17.56 33.9733 17.8667 33.3067 18.08 32.48C18.4533 31.1733 18.64 29.5067 18.64 27.48ZM40.7822 18.24L39.3422 23.36C38.9422 23.2 38.4889 23.12 37.9822 23.12C36.6489 23.12 35.0089 23.6933 33.0622 24.84V41H27.8622V18.16H31.7422L32.9422 20.16L38.4622 17.88C38.7289 17.8533 39.0889 17.84 39.5422 17.84C39.9955 17.84 40.4089 17.9733 40.7822 18.24ZM46.8881 9.44C48.1415 9.44 48.9548 9.64 49.3281 10.04C49.7015 10.4133 49.8881 11.2267 49.8881 12.48C49.8881 13.7067 49.6881 14.52 49.2881 14.92C48.9148 15.2933 48.1015 15.48 46.8481 15.48C45.6215 15.48 44.8081 15.28 44.4081 14.88C44.0348 14.48 43.8481 13.6667 43.8481 12.44C43.8481 11.2133 44.0348 10.4133 44.4081 10.04C44.8081 9.64 45.6348 9.44 46.8881 9.44ZM49.4481 41H44.2481V19H49.4481V41ZM66.4638 18.32L71.6638 18V39.96C71.6638 42.4933 70.9438 44.4267 69.5038 45.76C68.0904 47.12 65.9838 47.8 63.1838 47.8C61.0238 47.8 59.1304 47.3733 57.5038 46.52C56.6504 46.0933 55.9704 45.4533 55.4638 44.6C54.9571 43.7467 54.7038 42.7333 54.7038 41.56L59.5438 41.32C59.5438 42.0667 59.8104 42.6 60.3438 42.92C60.8771 43.24 61.7838 43.4 63.0638 43.4C64.3704 43.4 65.2504 43.08 65.7038 42.44C66.1838 41.8 66.4238 40.88 66.4238 39.68L66.6238 36.24L61.0238 39.24C57.9571 39.24 55.8904 38.2 54.8238 36.12C53.8638 34.28 53.3838 32.0267 53.3838 29.36C53.3838 26.1867 53.6238 23.9467 54.1038 22.64C54.6104 21.2 55.3304 20.16 56.2638 19.52C57.4638 18.72 59.0371 18.32 60.9838 18.32H66.4638ZM66.4638 31.72V23H62.5038C61.0104 23 59.9838 23.5067 59.4238 24.52C58.8638 25.5333 58.5838 26.9467 58.5838 28.76C58.5838 30.5733 58.8638 31.8667 59.4238 32.64C60.0104 33.3867 61.0371 33.76 62.5038 33.76L66.4638 31.72ZM94.5713 30.8H81.2513C81.2513 32.88 81.5713 34.4 82.2113 35.36C82.8779 36.32 84.1979 36.8 86.1713 36.8C87.4513 36.8 88.3979 36.4 89.0113 35.6C89.6246 34.7733 89.9313 33.9867 89.9313 33.24H94.6113C94.6113 36.0933 93.8379 38.1867 92.2913 39.52C90.7713 40.8533 88.7446 41.52 86.2113 41.52C83.7046 41.52 81.7579 41.16 80.3713 40.44C77.5179 38.9733 76.0913 35.08 76.0913 28.76C76.0913 25 76.9046 22.2533 78.5313 20.52C80.1579 18.76 82.6379 17.88 85.9713 17.88C91.7579 17.88 94.6513 21.0933 94.6513 27.52C94.6513 28.2133 94.6246 29.3067 94.5713 30.8ZM81.3713 27.24H89.9313C89.9313 25.48 89.5979 24.2 88.9313 23.4C88.2646 22.6 87.2379 22.2 85.8513 22.2C84.4913 22.2 83.3979 22.6133 82.5713 23.44C81.7713 24.24 81.3713 25.5067 81.3713 27.24ZM117.085 41H111.885V26.4C111.885 25.0933 111.619 24.2 111.085 23.72C110.552 23.24 109.805 23 108.845 23L104.165 24.96V41H98.9653V18.16H102.845L104.045 20.88L110.445 17.92C112.232 17.92 113.779 18.5867 115.085 19.92C116.419 21.2267 117.085 23.1467 117.085 25.68V41ZM139.415 30.8H126.095C126.095 32.88 126.415 34.4 127.055 35.36C127.722 36.32 129.042 36.8 131.015 36.8C132.295 36.8 133.242 36.4 133.855 35.6C134.468 34.7733 134.775 33.9867 134.775 33.24H139.455C139.455 36.0933 138.682 38.1867 137.135 39.52C135.615 40.8533 133.588 41.52 131.055 41.52C128.548 41.52 126.602 41.16 125.215 40.44C122.362 38.9733 120.935 35.08 120.935 28.76C120.935 25 121.748 22.2533 123.375 20.52C125.002 18.76 127.482 17.88 130.815 17.88C136.602 17.88 139.495 21.0933 139.495 27.52C139.495 28.2133 139.468 29.3067 139.415 30.8ZM126.215 27.24H134.775C134.775 25.48 134.442 24.2 133.775 23.4C133.108 22.6 132.082 22.2 130.695 22.2C129.335 22.2 128.242 22.6133 127.415 23.44C126.615 24.24 126.215 25.5067 126.215 27.24ZM159.889 34.68V35.28C159.729 37.28 158.876 38.7867 157.329 39.8C155.809 40.8133 153.902 41.32 151.609 41.32C148.222 41.32 145.849 40.7067 144.489 39.48C143.236 38.36 142.609 36.7067 142.609 34.52V34.04H147.329C147.329 35.2667 147.649 36.1067 148.289 36.56C148.929 37.0133 150.036 37.24 151.609 37.24C153.742 37.24 154.809 36.4667 154.809 34.92C154.809 33.64 154.436 32.7867 153.689 32.36C153.342 32.1467 152.902 31.9867 152.369 31.88L148.329 31.2C144.809 30.64 143.049 28.44 143.049 24.6C143.049 22.4667 143.822 20.8133 145.369 19.64C146.942 18.44 148.929 17.84 151.329 17.84C156.796 17.84 159.529 20.2 159.529 24.92V25.44H155.009C154.956 24.1867 154.622 23.3333 154.009 22.88C153.396 22.4267 152.529 22.2 151.409 22.2C150.316 22.2 149.489 22.4267 148.929 22.88C148.369 23.3067 148.089 23.7867 148.089 24.32C148.089 25.84 148.702 26.7067 149.929 26.92L154.769 27.8C158.182 28.44 159.889 30.7333 159.889 34.68Z" fill="black"/>
</svg>
