<svg width="579" height="584" viewBox="0 0 579 584" fill="none" xmlns="http://www.w3.org/2000/svg">
<rect width="579" height="584" rx="289.5" fill="white"/>
<path d="M131.604 402.85C129.504 407.283 126.238 410.2 121.804 411.6C117.604 412.767 112.938 412.767 107.804 411.6C102.904 410.2 98.3545 408.1 94.1545 405.3C89.9545 402.267 86.8045 398.65 84.7045 394.45C82.8378 390.25 82.9545 385.933 85.0545 381.5C80.3878 384.767 75.9545 385.933 71.7545 385C67.5545 383.833 64.1712 381.5 61.6045 378C59.0378 374.267 57.8712 370.3 58.1045 366.1C58.5712 361.667 61.1378 357.817 65.8045 354.55C61.3712 355.017 57.5212 353.733 54.2545 350.7C51.2212 347.433 48.8878 343.233 47.2545 338.1C45.6212 332.967 44.8045 327.717 44.8045 322.35C45.0378 316.983 46.2045 312.317 48.3045 308.35C50.6378 304.383 54.0212 302.167 58.4545 301.7C53.0878 301.467 48.8878 299.483 45.8545 295.75C42.8212 291.783 40.8378 287.117 39.9045 281.75C39.2045 276.15 39.4378 270.667 40.6045 265.3C42.0045 259.933 44.3378 255.5 47.6045 252C50.8712 248.5 55.0712 246.75 60.2045 246.75C56.9378 245.117 55.0712 242.317 54.6045 238.35C54.3712 234.383 55.0712 230.067 56.7045 225.4C58.3378 220.733 60.5545 216.417 63.3545 212.45C66.3878 208.25 69.6545 205.217 73.1545 203.35C76.6545 201.25 79.9212 201.017 82.9545 202.65C78.5212 196.817 76.7712 192.033 77.7045 188.3C78.6378 184.567 81.0878 182.7 85.0545 182.7C89.0212 182.7 93.2212 185.617 97.6545 191.45C95.0878 184.917 94.6212 179.433 96.2545 175C97.8878 170.567 100.688 167.65 104.654 166.25C108.621 164.617 112.704 164.85 116.904 166.95C121.338 168.817 124.838 172.9 127.404 179.2C126.704 173.6 127.521 169.167 129.854 165.9C132.188 162.633 135.221 160.767 138.954 160.3C142.688 159.833 146.071 160.883 149.104 163.45C152.371 165.783 154.471 169.75 155.405 175.35C155.871 169.983 158.204 166.017 162.404 163.45C166.838 160.65 171.855 159.017 177.454 158.55C183.288 158.083 189.004 158.783 194.604 160.65C200.205 162.283 204.755 164.967 208.254 168.7C211.754 172.2 213.154 176.633 212.455 182C215.955 174.067 219.921 169.517 224.354 168.35C228.788 167.183 231.938 168.7 233.805 172.9C235.905 176.867 235.205 182.817 231.705 190.75C236.838 183.75 241.504 180.017 245.704 179.55C249.904 179.083 252.355 180.95 253.055 185.15C253.754 189.117 251.538 194.6 246.405 201.6C251.538 197.633 256.204 195.883 260.404 196.35C264.838 196.583 268.105 198.217 270.204 201.25C272.538 204.05 273.238 207.55 272.305 211.75C271.371 215.95 268.221 220.033 262.855 224C267.988 222.367 272.188 222.483 275.455 224.35C278.721 225.983 280.821 228.433 281.755 231.7C282.688 234.733 282.221 237.883 280.355 241.15C278.721 244.183 275.338 246.517 270.204 248.15C274.638 247.917 278.138 249.55 280.705 253.05C283.505 256.317 285.371 260.517 286.304 265.65C287.471 270.55 287.705 275.567 287.005 280.7C286.305 285.833 284.671 290.15 282.105 293.65C279.771 297.15 276.388 299.017 271.955 299.25C280.588 299.25 286.305 300.883 289.105 304.15C291.905 307.183 291.788 310.217 288.755 313.25C285.954 316.283 280.238 317.683 271.604 317.45C277.205 318.383 281.055 321.067 283.154 325.5C285.254 329.7 285.838 334.25 284.905 339.15C283.971 344.05 281.755 348.133 278.254 351.4C274.754 354.433 270.205 355.367 264.605 354.2C267.405 356.767 268.455 360.15 267.755 364.35C267.054 368.55 265.188 372.867 262.154 377.3C259.121 381.5 255.505 385.233 251.305 388.5C247.338 391.767 243.371 393.983 239.404 395.15C235.438 396.083 232.055 395.267 229.254 392.7C230.654 398.067 229.371 402.733 225.405 406.7C221.671 410.667 216.771 413.467 210.705 415.1C204.638 416.733 198.921 416.85 193.554 415.45C188.188 414.05 184.804 410.667 183.404 405.3C184.104 418.133 180.021 424.55 171.154 424.55C162.288 424.55 149.104 417.317 131.604 402.85ZM189.355 350.7C183.988 348.367 181.071 344.867 180.604 340.2C180.371 335.3 181.655 330.983 184.455 327.25C187.488 323.283 191.454 321.417 196.354 321.65C193.321 320.017 191.105 317.217 189.704 313.25C188.538 309.283 188.188 305.083 188.655 300.65C189.121 296.217 190.405 292.483 192.505 289.45C194.838 286.183 197.988 284.55 201.954 284.55C197.288 284.783 193.788 282.917 191.454 278.95C189.121 274.75 188.188 270.2 188.655 265.3C189.354 260.167 191.338 256.317 194.604 253.75C190.171 254.217 186.321 252.467 183.054 248.5C179.788 244.533 178.621 240.45 179.555 236.25C176.754 237.883 173.838 238.35 170.805 237.65C168.005 236.717 165.788 234.85 164.155 232.05C163.221 236.017 160.888 239.05 157.154 241.15C153.421 243.017 149.688 243.367 145.954 242.2C147.121 245.467 147.238 248.967 146.304 252.7C145.371 256.433 143.621 259.583 141.054 262.15C138.488 264.717 135.338 266 131.604 266C134.871 266.933 137.204 268.917 138.604 271.95C140.238 274.983 140.821 278.367 140.354 282.1C140.121 285.6 138.955 288.633 136.854 291.2C134.988 293.767 132.188 295.05 128.454 295.05C133.354 294.817 136.621 295.517 138.254 297.15C139.888 298.783 139.888 300.533 138.254 302.4C136.621 304.033 133.354 304.85 128.454 304.85C134.054 304.617 138.021 306.017 140.354 309.05C142.921 311.85 143.854 315.117 143.155 318.85C142.688 322.583 140.588 325.5 136.854 327.6C140.821 328.067 144.554 330.4 148.055 334.6C151.554 338.8 153.421 343.117 153.655 347.55C156.921 344.05 161.588 342.883 167.654 344.05C173.955 344.983 181.188 347.2 189.355 350.7ZM366.17 400.4C363.137 407.4 359.403 411.483 354.97 412.65C350.77 413.583 347.387 412.183 344.82 408.45C342.253 404.483 342.487 399 345.52 392C342.02 396.2 338.287 398.533 334.32 399C330.353 399.467 326.853 398.533 323.82 396.2C321.02 393.867 319.387 390.717 318.92 386.75C318.687 382.783 320.32 378.7 323.82 374.5C318.687 376.833 314.02 376.833 309.82 374.5C305.853 372.167 302.703 368.667 300.37 364C298.27 359.333 297.57 354.667 298.27 350C299.203 345.333 302.12 341.833 307.02 339.5C300.487 339.967 295.353 338.683 291.62 335.65C288.12 332.617 286.137 329 285.67 324.8C285.437 320.367 286.837 316.4 289.87 312.9C292.903 309.4 297.687 307.417 304.22 306.95C298.62 306.95 294.303 305.083 291.27 301.35C288.47 297.383 287.07 292.95 287.07 288.05C287.07 282.917 288.47 278.483 291.27 274.75C294.303 270.783 298.62 268.8 304.22 268.8C300.487 268.1 297.92 265.767 296.52 261.8C295.12 257.6 294.653 252.817 295.12 247.45C295.587 242.083 296.753 236.95 298.62 232.05C300.487 226.917 302.937 222.833 305.97 219.8C309.003 216.767 312.387 215.6 316.12 216.3C312.153 212.1 310.637 207.55 311.57 202.65C312.737 197.517 315.303 193.083 319.27 189.35C323.47 185.617 328.02 183.517 332.92 183.05C338.053 182.35 342.603 184.1 346.57 188.3C343.77 181.067 343.07 175.7 344.47 172.2C346.103 168.7 348.67 167.65 352.17 169.05C355.903 170.45 359.287 174.767 362.32 182C360.453 174.767 360.92 169.517 363.72 166.25C366.753 162.983 370.253 162.167 374.22 163.8C378.187 165.433 380.987 169.867 382.62 177.1C382.387 171.033 384.02 166.367 387.52 163.1C391.253 159.833 395.57 158.083 400.47 157.85C405.603 157.617 410.153 158.9 414.12 161.7C418.087 164.5 420.187 168.933 420.42 175C421.12 168.933 422.753 164.5 425.32 161.7C428.12 158.667 431.037 157.383 434.07 157.85C437.337 158.083 440.02 159.95 442.12 163.45C444.22 166.717 444.92 171.5 444.22 177.8C445.62 172.667 448.42 169.283 452.62 167.65C456.82 166.017 461.137 165.9 465.57 167.3C470.003 168.7 473.503 171.15 476.07 174.65C478.637 178.15 479.22 182.467 477.82 187.6C481.087 183.167 485.287 181.183 490.42 181.65C495.553 182.117 500.337 184.1 504.77 187.6C509.437 191.1 512.587 195.3 514.22 200.2C516.087 204.867 515.27 209.417 511.77 213.85C516.437 214.317 519.703 215.95 521.57 218.75C523.67 221.55 524.487 224.7 524.02 228.2C523.787 231.467 522.387 234.383 519.82 236.95C517.487 239.283 514.103 240.217 509.67 239.75C509.67 243.017 507.803 245.7 504.07 247.8C500.57 249.9 496.253 251.3 491.12 252C485.987 252.467 480.737 252.467 475.37 252C470.237 251.3 465.92 249.9 462.42 247.8C458.92 245.7 457.17 243.017 457.17 239.75C455.303 244.183 452.27 247.217 448.07 248.85C444.103 250.25 439.67 250.483 434.77 249.55C430.103 248.617 425.67 246.867 421.47 244.3C417.503 241.733 414.587 238.583 412.72 234.85C411.087 238.583 408.287 241.5 404.32 243.6C400.587 245.7 396.737 246.517 392.77 246.05C394.637 250.25 394.287 254.567 391.72 259C389.153 263.433 384.837 265.533 378.77 265.3C383.437 266.467 386.237 268.683 387.17 271.95C388.337 274.983 387.753 277.9 385.42 280.7C383.32 283.5 379.587 284.783 374.22 284.55C380.52 284.55 384.72 286.417 386.82 290.15C389.153 293.65 389.387 297.15 387.52 300.65C385.653 304.15 381.803 305.9 375.97 305.9C381.103 305.9 384.953 307.417 387.52 310.45C390.087 313.25 391.37 316.633 391.37 320.6C391.37 324.567 389.97 327.833 387.17 330.4C390.437 330.4 393.237 331.45 395.57 333.55C398.137 335.65 399.77 338.217 400.47 341.25C403.97 337.517 408.287 335.533 413.42 335.3C418.553 335.067 422.987 336.467 426.72 339.5C426.487 336.933 427.07 335.183 428.47 334.25C430.103 333.317 432.203 333.317 434.77 334.25L434.42 333.9C430.22 332.033 427.07 328.767 424.97 324.1C423.103 319.433 424.037 314.533 427.77 309.4C421.237 309.4 416.803 307.883 414.47 304.85C412.37 301.817 412.37 298.9 414.47 296.1C416.803 293.067 421.237 291.55 427.77 291.55C421.003 291.55 416.453 290.267 414.12 287.7C412.02 285.133 412.02 282.567 414.12 280C416.453 277.433 421.003 276.15 427.77 276.15C427.77 272.417 429.403 269.383 432.67 267.05C435.937 264.717 440.02 263.2 444.92 262.5C449.82 261.567 454.72 261.45 459.62 262.15C464.52 262.85 468.603 264.367 471.87 266.7C475.137 269.033 476.77 272.067 476.77 275.8C477.237 271.367 479.803 268.333 484.47 266.7C489.37 264.833 494.737 264.25 500.57 264.95C506.637 265.417 511.77 267.05 515.97 269.85C520.403 272.417 522.387 275.917 521.92 280.35C528.687 280.35 533.82 281.75 537.32 284.55C540.82 287.35 542.57 290.617 542.57 294.35C542.57 297.85 540.82 301 537.32 303.8C533.82 306.6 528.687 308 521.92 308C528.453 308.233 533.237 310.217 536.27 313.95C539.303 317.45 540.703 321.417 540.47 325.85C540.237 330.283 538.37 334.017 534.87 337.05C531.37 340.083 526.353 341.367 519.82 340.9C524.253 343.467 526.47 347.317 526.47 352.45C526.703 357.583 525.42 362.6 522.62 367.5C520.053 372.4 516.553 376.133 512.12 378.7C507.687 381.033 503.137 380.917 498.47 378.35C501.737 384.183 502.553 389.433 500.92 394.1C499.52 398.767 496.603 402.383 492.17 404.95C487.97 407.517 483.42 408.45 478.52 407.75C473.62 406.817 469.42 403.433 465.92 397.6C468.253 405.767 468.137 411.6 465.57 415.1C463.237 418.6 460.087 419.417 456.12 417.55C452.153 415.683 449.12 410.783 447.02 402.85C447.72 410.083 444.57 415.1 437.57 417.9C430.803 420.7 421.12 420.7 408.52 417.9C396.153 415.333 382.037 409.5 366.17 400.4Z" fill="#0D4F07"/>
</svg>
