<svg width="800" height="800" viewBox="0 0 800 800" fill="none" xmlns="http://www.w3.org/2000/svg">
<path d="M182.322 417.676C172.559 407.913 172.559 392.086 182.322 382.323L248.989 315.655C258.752 305.892 274.581 305.892 284.344 315.655C294.108 325.418 294.108 341.246 284.344 351.01L260.355 375H500C513.807 375 525 386.193 525 400C525 413.806 513.807 425 500 425H260.355L284.344 448.99C294.108 458.753 294.108 474.58 284.344 484.343C274.581 494.106 258.752 494.106 248.989 484.343L182.322 417.676Z" fill="#636363"/>
<path fill-rule="evenodd" clip-rule="evenodd" d="M464.843 41.667H501.837C547.423 41.6663 584.167 41.6657 613.067 45.551C643.07 49.585 668.333 58.2147 688.397 78.2787C708.46 98.3427 717.09 123.605 721.123 153.609C725.01 182.508 725.007 219.252 725.007 264.838V535.164C725.007 580.75 725.01 617.494 721.123 646.394C717.09 676.397 708.46 701.657 688.397 721.724C668.333 741.787 643.07 750.417 613.067 754.45C584.167 758.334 547.423 758.334 501.837 758.334H464.843C419.26 758.334 382.513 758.334 353.617 754.45C323.612 750.417 298.349 741.787 278.286 721.724C264.988 708.424 256.689 692.814 251.435 674.994C219.723 674.954 193.302 674.604 171.896 671.727C146.431 668.304 124.353 660.894 106.73 643.27C89.107 625.647 81.6977 603.57 78.274 578.104C74.9987 553.744 74.9993 522.884 75 485.124V314.877C74.9993 277.117 74.9987 246.258 78.274 221.897C81.6977 196.432 89.107 174.354 106.73 156.73C124.353 139.107 146.431 131.698 171.896 128.274C193.302 125.396 219.723 125.048 251.435 125.006C256.689 107.188 264.988 91.5767 278.286 78.2787C298.349 58.2147 323.612 49.585 353.617 45.551C382.513 41.6657 419.26 41.6663 464.843 41.667ZM241.732 566.807C241.852 588.29 242.207 607.644 243.428 624.97C215.612 624.864 194.933 624.374 178.559 622.174C158.638 619.494 148.87 614.7 142.086 607.914C135.301 601.13 130.506 591.364 127.828 571.44C125.053 550.804 125 523.324 125 483.334V316.667C125 276.677 125.053 249.199 127.828 228.559C130.506 208.638 135.301 198.87 142.086 192.086C148.87 185.301 158.638 180.507 178.559 177.828C194.933 175.627 215.612 175.139 243.428 175.031C242.207 192.358 241.852 211.71 241.732 233.195C241.655 247.001 252.786 258.256 266.593 258.333C280.4 258.41 291.655 247.28 291.731 233.473C291.934 197.023 292.881 171.187 296.483 151.579C299.953 132.685 305.526 121.749 313.641 113.634C322.866 104.409 335.82 98.3937 360.277 95.1053C385.457 91.72 418.827 91.667 466.673 91.667H500.007C547.853 91.667 581.223 91.72 606.403 95.1053C630.863 98.3937 643.813 104.409 653.04 113.634C662.267 122.859 668.28 135.812 671.57 160.271C674.953 185.449 675.007 218.82 675.007 266.667V533.334C675.007 581.18 674.953 614.55 671.57 639.73C668.28 664.19 662.267 677.14 653.04 686.367C643.813 695.594 630.863 701.607 606.403 704.897C581.223 708.28 547.853 708.334 500.007 708.334H466.673C418.827 708.334 385.457 708.28 360.277 704.897C335.82 701.607 322.866 695.594 313.641 686.367C305.526 678.25 299.953 667.317 296.483 648.424C292.881 628.814 291.934 602.977 291.731 566.527C291.655 552.72 280.4 541.59 266.593 541.667C252.786 541.744 241.655 553 241.732 566.807Z" fill="#636363"/>
</svg>
