<svg width="36" height="36" viewBox="0 0 36 36" fill="none" xmlns="http://www.w3.org/2000/svg">
<path d="M33 25.5V10.5C33 7.18629 30.3137 4.5 27 4.5L9 4.5C5.68629 4.5 3 7.18629 3 10.5V25.5C3 28.8137 5.68629 31.5 9 31.5H27C30.3137 31.5 33 28.8137 33 25.5Z" stroke="#636363" stroke-width="2.25"/>
<path d="M9 27C9.82843 27 10.5 26.3284 10.5 25.5C10.5 24.6716 9.82843 24 9 24C8.17157 24 7.5 24.6716 7.5 25.5C7.5 26.3284 8.17157 27 9 27Z" fill="#636363"/>
<path d="M3 10.5H33V16.5H3V10.5Z" stroke="#636363" stroke-width="2.25" stroke-linecap="round" stroke-linejoin="round"/>
</svg>
